HIERARCHY
ROOT hip
{
  OFFSET 0 0 0
  CHANNELS 6 Xposition Yposition Zposition Zrotation Yrotation Xrotation
  JOINT abdomen
  {
    OFFSET 0 20.6881 -0.73152
    CHANNELS 3 Zrotation Xrotation Yrotation
    JOINT chest
    {
      OFFSET 0 11.7043 -0.48768
      CHANNELS 3 Zrotation Xrotation Yrotation
      JOINT neck
      {
        OFFSET 0 22.1894 -2.19456
        CHANNELS 3 Zrotation Xrotation Yrotation
        JOINT head
        {
          OFFSET -0.24384 7.07133 1.2192
          CHANNELS 3 Zrotation Xrotation Yrotation
          JOINT leftEye
          {
            OFFSET 4.14528 8.04674 8.04672
            CHANNELS 3 Zrotation Xrotation Yrotation
            End Site
            {
              OFFSET 1 0 0
            }
          }
          JOINT rightEye
          {
            OFFSET -3.6576 8.04674 8.04672
            CHANNELS 3 Zrotation Xrotation Yrotation
            End Site
            {
              OFFSET 1 0 0
            }
          }
        }
      }
      JOINT rCollar
      {
        OFFSET -2.68224 19.2634 -4.8768
        CHANNELS 3 Zrotation Xrotation Yrotation
        JOINT rShldr
        {
          OFFSET -8.77824 -1.95073 1.46304
          CHANNELS 3 Zrotation Xrotation Yrotation
          JOINT rForeArm
          {
            OFFSET -28.1742 -1.7115 0.48768
            CHANNELS 3 Zrotation Xrotation Yrotation
            JOINT rHand
            {
              OFFSET -22.5879 0.773209 7.07136
              CHANNELS 3 Zrotation Xrotation Yrotation
              JOINT rThumb1
              {
                OFFSET -1.2192 -0.487915 3.41376
                CHANNELS 3 Zrotation Xrotation Yrotation
                JOINT rThumb2
                {
                  OFFSET -3.37035 -0.52449 3.41376
                  CHANNELS 3 Zrotation Xrotation Yrotation
                  End Site
                  {
                    OFFSET -1.78271 -1.18214 1.43049
                  }
                }
              }
              JOINT rIndex1
              {
                OFFSET -7.75947 0.938293 5.60832
                CHANNELS 3 Zrotation Xrotation Yrotation
                JOINT rIndex2
                {
                  OFFSET -2.54057 -0.884171 1.56538
                  CHANNELS 3 Zrotation Xrotation Yrotation
                  End Site
                  {
                    OFFSET -1.62519 -0.234802 1.16502
                  }
                }
              }
              JOINT rMid1
              {
                OFFSET -8.24714 1.18213 3.41376
                CHANNELS 3 Zrotation Xrotation Yrotation
                JOINT rMid2
                {
                  OFFSET -3.10165 -0.590103 1.0647
                  CHANNELS 3 Zrotation Xrotation Yrotation
                  End Site
                  {
                    OFFSET -2.48547 -0.328903 0.83742
                  }
                }
              }
              JOINT rRing1
              {
                OFFSET -8.82822 0.546677 1.51678
                CHANNELS 3 Zrotation Xrotation Yrotation
                JOINT rRing2
                {
                  OFFSET -2.60934 -0.819778 -0.0198488
                  CHANNELS 3 Zrotation Xrotation Yrotation
                  End Site
                  {
                    OFFSET -2.33842 -0.294052 0.168128
                  }
                }
              }
              JOINT rPinky1
              {
                OFFSET -8.27202 -0.0477905 -0.4584
                CHANNELS 3 Zrotation Xrotation Yrotation
                JOINT rPinky2
                {
                  OFFSET -1.82734 -0.647385 -0.700984
                  CHANNELS 3 Zrotation Xrotation Yrotation
                  End Site
                  {
                    OFFSET -1.69225 -0.51767 -0.607171
                  }
                }
              }
            }
          }
        }
      }
      JOINT lCollar
      {
        OFFSET 2.68224 19.2634 -4.8768
        CHANNELS 3 Zrotation Xrotation Yrotation
        JOINT lShldr
        {
          OFFSET 8.77824 -1.95073 1.46304
          CHANNELS 3 Zrotation Xrotation Yrotation
          JOINT lForeArm
          {
            OFFSET 28.1742 -1.7115 0.48768
            CHANNELS 3 Zrotation Xrotation Yrotation
            JOINT lHand
            {
              OFFSET 22.5879 0.773209 7.07136
              CHANNELS 3 Zrotation Xrotation Yrotation
              JOINT lThumb1
              {
                OFFSET 1.2192 -0.487915 3.41376
                CHANNELS 3 Zrotation Xrotation Yrotation
                JOINT lThumb2
                {
                  OFFSET 3.37035 -0.52449 3.41376
                  CHANNELS 3 Zrotation Xrotation Yrotation
                  End Site
                  {
                    OFFSET 1.78271 -1.18214 1.43049
                  }
                }
              }
              JOINT lIndex1
              {
                OFFSET 7.75947 0.938293 5.60832
                CHANNELS 3 Zrotation Xrotation Yrotation
                JOINT lIndex2
                {
                  OFFSET 2.54057 -0.884171 1.56538
                  CHANNELS 3 Zrotation Xrotation Yrotation
                  End Site
                  {
                    OFFSET 1.62519 -0.234802 1.16502
                  }
                }
              }
              JOINT lMid1
              {
                OFFSET 8.24714 1.18213 3.41376
                CHANNELS 3 Zrotation Xrotation Yrotation
                JOINT lMid2
                {
                  OFFSET 3.10165 -0.590103 1.0647
                  CHANNELS 3 Zrotation Xrotation Yrotation
                  End Site
                  {
                    OFFSET 2.48547 -0.328903 0.83742
                  }
                }
              }
              JOINT lRing1
              {
                OFFSET 8.82822 0.546677 1.51678
                CHANNELS 3 Zrotation Xrotation Yrotation
                JOINT lRing2
                {
                  OFFSET 2.60934 -0.819778 -0.0198488
                  CHANNELS 3 Zrotation Xrotation Yrotation
                  End Site
                  {
                    OFFSET 2.33842 -0.294052 0.168128
                  }
                }
              }
              JOINT lPinky1
              {
                OFFSET 8.27202 -0.0477905 -0.4584
                CHANNELS 3 Zrotation Xrotation Yrotation
                JOINT lPinky2
                {
                  OFFSET 1.82734 -0.647385 -0.700984
                  CHANNELS 3 Zrotation Xrotation Yrotation
                  End Site
                  {
                    OFFSET 1.69225 -0.51767 -0.607171
                  }
                }
              }
            }
          }
        }
      }
    }
  }
  JOINT rButtock
  {
    OFFSET -8.77824 4.35084 1.2192
    CHANNELS 3 Zrotation Xrotation Yrotation
    JOINT rThigh
    {
      OFFSET 0 -1.70687 -2.19456
      CHANNELS 3 Zrotation Xrotation Yrotation
      JOINT rShin
      {
        OFFSET 0 -36.8199 0.73152
        CHANNELS 3 Zrotation Xrotation Yrotation
        JOINT rFoot
        {
          OFFSET 0.73152 -45.1104 -5.12064
          CHANNELS 3 Zrotation Xrotation Yrotation
          End Site
          {
            OFFSET -1.1221 -3.69964 12.103
          }
        }
      }
    }
  }
  JOINT lButtock
  {
    OFFSET 8.77824 4.35084 1.2192
    CHANNELS 3 Zrotation Xrotation Yrotation
    JOINT lThigh
    {
      OFFSET 0 -1.70687 -2.19456
      CHANNELS 3 Zrotation Xrotation Yrotation
      JOINT lShin
      {
        OFFSET 0 -36.8199 0.73152
        CHANNELS 3 Zrotation Xrotation Yrotation
        JOINT lFoot
        {
          OFFSET -0.73152 -45.1104 -5.12064
          CHANNELS 3 Zrotation Xrotation Yrotation
          End Site
          {
            OFFSET 1.1221 -3.69964 12.103
          }
        }
      }
    }
  }
}
MOTION
Frames:	7
Frame Time:	0.03333
-7.925699999999999 63.063100000000006 16.945 6.89155 9.448657 11.851073 -15.859777 10.972139 102.85083 -8.547055 5.487469 -121.960106 6.218115 20.505051 166.632207 -3.011788 35.858566 -175.023435 15.52218 3.246563 23.492414 22.998861 -3.927472 -19.132887 -142.661205 35.620032 144.002364 -43.625747 73.547887 38.046338 4.048753 -5.173482 -119.033861 163.482399 -31.727058 135.499191 -89.233363 30.02763 42.344031 18.865916 -6.219758 51.036045 -32.892615 39.326598 45.814241 -108.469942 -84.658014 -131.343313 -2.950253 -48.029052 12.248994 91.6363 87.04679 -69.759778 -62.717762 79.312219 83.703575 5.253997 30.214314 -19.937578 -135.962121 22.837278 -154.66104 -160.44166 76.154469 -137.748049 2.61907 25.891908 -1.731012 -82.936455 7.397377 -82.44598 165.035223 -59.45793 -77.018138 158.862259 10.420802 -132.60997 -88.243816 -53.443775 -33.955846 146.494183 -10.230573 -115.291439 45.22748 28.649219 -32.112641 86.332972 43.191436 -67.052128 82.663914 43.242517 -82.733194 134.886176 19.558226 -143.162511 -9.188687 -2.770442 -13.398887 3.325428 -0.212637 -4.072447 -14.431996 30.868683 4.277416 96.413133 68.889131 -133.477214 85.350181 58.177208 45.317952 -125.814185 -30.984226 69.620938 103.055481 -10.043129 -37.477115 -127.463904 26.37918 45.333121 -0.581317 -5.993509 0.682672 49.284262 -21.911778 24.568396 -44.946231 63.545516 136.240139 -114.285081 -55.066255 147.999273
-8.7599 65.3009 16.8046 6.751655 8.133394 11.195786 -16.075396 11.851503 54.522911 -10.206205 -1.832903 -75.358141 12.11699 6.898958 79.82478 -26.539937 8.111064 -85.695119 32.586017 13.145246 43.028659 15.231514 -3.547014 -26.076804 -0.589128 -1.524929 3.910741 -76.12543 63.352656 99.752675 -59.152108 -46.930647 31.203045 1.597315 -4.562311 -4.559408 -175.141469 -1.530241 83.129823 89.655632 -56.535396 94.468835 -145.79862 -55.612823 129.000567 -131.247247 -56.406198 119.839379 -53.669662 26.268882 22.533492 -65.745731 36.929487 94.437448 -141.411288 -5.492722 -174.992917 32.840763 28.40516 -7.097843 -137.551903 53.286899 -161.38236 26.9512 19.610253 -14.502693 50.689352 69.953817 -53.310019 -91.174617 -1.624617 -133.78822 -159.683391 -54.85979 -51.723508 144.290621 30.018238 -122.081173 92.404438 42.743405 -55.837835 -6.635666 -33.698039 -22.813453 -179.384176 -46.038495 -108.546894 160.583948 -7.134085 -114.274136 -27.986875 -27.756183 -10.218926 4.846405 -20.604768 9.078617 -15.428112 -14.539776 -5.533295 -11.628701 -62.744743 -7.138024 163.439104 56.096869 145.878571 8.544367 74.862258 -26.820446 -11.223883 2.464605 -0.0 72.250493 -63.296551 148.016777 98.58241 13.664163 -162.722208 -88.701416 -82.362702 8.706877 -178.914264 80.171003 0.0 -126.627019 39.742304 -0.0 7.671479 53.934291 -121.632716 149.437412 -24.080131 -111.934718
-9.1847 67.1169 16.386 6.59315 6.738876 10.850356 -12.174557 8.169243 -94.114419 6.078389 -7.889321 73.466213 4.457625 -0.067296 20.477067 -13.260235 -15.090817 -30.798614 51.586781 20.646044 41.302639 10.196192 -2.533269 -27.839066 -140.836044 36.561904 142.790053 2.57611 -76.114565 9.13937 109.371541 22.50541 101.374612 -172.428655 34.013335 138.41256 97.670883 -46.007846 52.178472 -161.943512 -42.907664 163.017117 -140.985065 -45.182968 136.749401 1.693025 75.3111 19.485735 -28.394322 -7.6682 12.536458 -123.75852 -67.477845 159.862894 -141.362909 3.372742 179.105232 -131.504061 -25.643476 -172.101931 13.714318 13.987179 10.024882 -163.170353 -21.608998 -138.291096 0.648259 0.233556 3.759897 93.015704 -31.951776 -117.961289 -18.314454 44.226471 112.209941 142.606791 30.59804 -123.395672 -81.389613 -56.739258 -29.586654 147.692793 -58.534032 -142.52516 146.522607 -12.441324 -111.762132 -7.525819 12.533753 -1.211387 19.173026 41.531103 -27.564918 1.6672 20.893559 -0.994557 -13.103778 -0.647733 -5.576249 -4.460584 -44.953549 -0.198527 147.926168 36.036979 154.275751 151.058922 -18.893584 141.61344 -1.258641 1.350992 1.647967 47.825824 -63.462678 -68.434459 -91.054636 -20.591502 166.925948 -31.827493 -65.669399 -109.729257 133.366848 72.461993 40.351984 -111.747054 40.92346 -57.538692 -20.170277 38.457655 154.031423 105.561922 78.261571 167.393166
-9.2616 68.4995 15.6945 6.414491 4.952475 10.849185 -15.737673 8.266858 1.655011 -4.47516 -6.086123 -22.620411 12.127238 5.909056 79.145748 -28.023879 9.973559 -84.652727 58.293411 19.856114 34.850925 8.654057 -2.041128 -26.496253 54.295881 -85.969317 33.321924 -53.986389 87.815367 82.171041 -33.624057 18.844399 92.924479 2.004583 -4.789322 -3.846253 102.70315 -46.136872 56.202662 -171.411336 -25.805511 146.669946 -6.381516 35.838968 4.184075 159.531507 5.64006 99.983338 146.252542 -38.371942 124.691076 -71.435831 83.832808 25.971657 5.615109 -1.745809 1.088462 -173.708409 5.598137 166.888738 -22.823495 84.395405 71.940378 -136.594196 -13.09057 -103.507768 157.621459 -20.726949 -170.157799 -103.633816 1.281791 105.60512 -151.354522 -60.460151 -53.017809 140.467654 33.228677 -122.488013 84.832194 47.254086 -48.538838 -22.335743 -41.319104 -30.747514 151.1908 -21.927383 -115.272655 -59.183416 -47.847729 -9.153261 -9.574489 0.664257 -2.378785 -146.10329 -74.921538 -108.89778 53.924117 -75.483516 79.126305 72.571046 78.191464 -92.276476 134.227852 -7.820555 145.706735 30.416678 -42.639494 22.769624 -172.395561 75.813656 -5.210574 -166.585822 12.000472 -0.0 -7.119214 80.527464 40.364552 -62.678539 15.256618 -12.88367 5.323059 0.363896 -6.91402 27.571366 -9.495179 -107.533028 -29.477581 -24.998994 -50.589913 -25.945564 7.841449 -179.735992
-9.119 69.57910000000001 14.8561 6.173056 2.920303 11.230964 -19.503339 3.455303 80.342747 -2.544699 -0.570361 -101.154146 8.241632 1.146324 46.564015 -23.126307 -5.478218 -54.293974 51.157975 18.458949 37.501381 9.27321 -1.949893 -23.701198 -147.970531 17.357697 147.553844 -7.351715 16.026676 -1.323451 -179.157391 -32.525603 -106.020009 -8.483614 29.264644 -2.546327 167.920974 -13.386013 86.360527 82.709194 -74.822425 88.525704 -148.808391 -59.349096 146.596309 -110.727352 -81.103909 152.754262 112.838699 -58.118224 100.088445 177.24501 -13.949562 174.204089 7.265256 0.219728 0.433698 -15.338954 27.108063 14.366675 -134.153205 7.966287 -148.19268 47.262486 23.784353 -2.15391 10.595632 44.151936 -7.667682 -104.121762 17.101697 -102.006378 -28.158901 67.550631 -38.852013 16.857446 -26.515962 7.635016 171.65723 -14.352508 -100.262732 -173.709192 -63.277062 -135.719191 -45.944632 -54.534919 -5.63513 6.135036 14.563739 -2.536648 161.927295 -32.764756 -143.767794 173.595682 -2.266968 -147.584075 -2.832756 -13.760936 0.885123 -5.305415 -62.465512 14.986361 -6.760191 -17.481252 -5.48047 163.380008 43.465799 144.445187 173.938915 77.072212 6.217493 -165.842159 15.179172 -3.502386 11.314951 84.661971 101.198998 -26.65709 8.794703 -106.476643 116.545939 54.652557 50.015771 -99.259685 44.170148 -0.0 25.658505 20.550302 98.632903 30.157855 57.619464 -127.644696
-8.8378 70.6186 14.0293 5.811321 0.891871 11.677324 -18.336222 2.971746 -0.0 -0.037996 -3.353626 -21.138105 9.14206 1.269267 56.784803 -23.857713 -0.773441 -62.285264 39.904522 15.364104 40.766119 10.531408 -1.830405 -19.666705 -146.455647 18.174433 145.084913 -94.896454 -86.518727 -90.918988 -15.477332 -41.210772 63.095592 -2.160621 13.53688 -3.159244 -1.578766 -14.145854 1.997835 0.743495 29.811248 -4.253142 0.678577 2.023814 -15.152777 178.191802 -6.926411 73.309955 -17.281528 -6.020978 19.77426 12.53991 68.498592 2.489601 -56.669549 74.414667 81.754071 -9.57517 1.925455 -17.156152 3.661343 -18.785734 1.546174 -26.994291 -32.48321 11.22464 3.101653 12.552885 4.294615 85.856881 -22.713529 -103.842725 -24.391213 54.835898 114.778523 145.933082 30.651559 -127.142857 163.10109 -3.291659 -101.358827 150.619994 18.464164 -95.415246 150.455878 -20.637403 -117.707298 2.357108 17.935607 -4.447873 -3.651236 1.41926 -3.931473 137.734243 20.240703 -145.810284 42.594845 65.238112 -55.937578 -13.891013 26.715025 -2.76208 1.378034 -33.056273 3.671779 152.664201 16.306237 149.954115 -0.347586 -2.03894 -0.17086 20.961562 -56.665177 17.976304 -38.93749 72.91297 -7.116925 -56.048236 -57.753331 24.055737 1.148708 4.001105 -16.033042 29.62672 -4.903834 -98.548421 -18.487476 -16.304303 58.25584 1.643283 -19.546197 87.990595
-8.421199999999999 71.688 13.293 5.325129 -0.938812 11.939009 -15.950132 -0.750732 -90.630835 0.59225 -1.214715 70.655515 11.849236 6.752629 99.70002 -22.550528 17.842841 -103.163177 30.016397 11.19527 40.161388 11.84896 -1.476112 -14.152977 16.297885 -49.879783 5.468435 -143.489391 -3.370406 169.840884 -163.550878 -72.317614 -92.561737 -4.744862 22.571636 -2.168357 -85.818314 37.217172 36.541684 -146.022316 -45.266624 67.16477 -144.198268 12.141064 125.330473 -158.267268 70.857423 131.645975 7.443252 -28.463097 20.320283 0.182915 -41.888152 -29.751422 6.794503 7.949714 -0.073581 -115.474281 59.49068 114.211923 -16.745553 -46.952116 -19.333739 -75.37152 -88.696531 -65.389335 78.046928 -80.67501 97.771782 77.270086 -0.16992 152.07538 -161.327604 -79.321166 134.832295 13.011053 -26.658749 7.61575 80.069947 51.402765 -46.272349 122.406842 2.919063 -52.937423 143.988582 -9.661598 -115.527105 164.085163 -5.754039 -109.502855 152.195786 12.060722 -131.176534 168.913876 20.352609 -116.483212 6.93237 -0.691098 -3.632621 129.751536 -47.195949 159.986817 138.33285 -1.737059 147.756273 -4.352629 -8.407094 12.17158 0.079435 -1.628209 2.793435 17.108133 -59.67903 -170.890734 26.916076 -79.401549 -51.983508 -170.945616 2.660699 106.792677 6.854802 2.948025 -9.233501 21.785931 -9.656638 -180.0 2.741012 -31.219183 -92.803256 -77.949696 34.537744 1.453309
